<svg width="1173" height="195" viewBox="0 0 1173 195" fill="none" xmlns="http://www.w3.org/2000/svg">
<path d="M147.094 137.699C147.094 174.678 127.495 193.168 88.2969 193.168H28.3906C10.0859 193.168 0.933594 185.125 0.933594 169.039V30.0898C0.933594 14.0039 10.0859 5.96094 28.3906 5.96094H84.1367C121.486 5.96094 140.16 20.8451 140.16 50.6133C140.16 70.2122 132.672 83.8021 117.695 91.3828C137.294 100.812 147.094 116.251 147.094 137.699ZM92.1797 134.648C92.1797 121.151 85.431 114.402 71.9336 114.402H55.8477V154.895H72.4883C85.6159 154.895 92.1797 148.146 92.1797 134.648ZM88.2969 61.707C88.2969 49.6888 82.2878 43.6797 70.2695 43.6797H55.8477V79.7344H70.8242C82.4727 79.7344 88.2969 73.7253 88.2969 61.707ZM213.934 169.039C213.934 185.125 204.781 193.168 186.477 193.168C168.172 193.168 159.02 185.125 159.02 169.039V30.0898C159.02 14.0039 168.172 5.96094 186.477 5.96094C204.781 5.96094 213.934 14.0039 213.934 30.0898V169.039ZM342.898 113.57L370.355 149.625C374.423 154.987 376.457 160.719 376.457 166.82C376.457 172.922 372.759 178.839 365.363 184.57C357.967 190.21 351.173 193.029 344.979 193.029C338.785 193.029 332.914 189.285 327.367 181.797L282.715 122.168V169.039C282.715 185.125 273.562 193.168 255.258 193.168C236.953 193.168 227.801 185.125 227.801 169.039V30.0898C227.801 14.0039 236.953 5.96094 255.258 5.96094H317.383C332.729 5.96094 345.487 11.8776 355.656 23.7109C365.826 35.4518 370.91 48.071 370.91 61.5684C370.91 85.6973 361.573 103.031 342.898 113.57ZM282.715 43.6797V86.3906H298.523C314.055 86.3906 321.82 79.2721 321.82 65.0352C321.82 50.7982 314.055 43.6797 298.523 43.6797H282.715ZM471.586 193.168H415.84C397.535 193.168 388.383 185.125 388.383 169.039V30.0898C388.383 14.0039 397.535 5.96094 415.84 5.96094H471.586C502.186 9.47396 523.264 26.3919 534.82 56.7148C540.552 70.8594 543.418 85.1888 543.418 99.7031C543.418 114.125 540.552 128.362 534.82 142.414C523.264 172.737 502.186 189.655 471.586 193.168ZM492.525 97.9004C492.433 62.6777 479.352 44.6042 453.281 43.6797H443.297V154.617L453.281 154.895C479.536 152.121 492.618 133.123 492.525 97.9004ZM707.328 193.168H651.582C633.277 193.168 624.125 185.125 624.125 169.039V30.0898C624.125 14.0039 633.277 5.96094 651.582 5.96094H707.328C737.928 9.47396 759.007 26.3919 770.562 56.7148C776.294 70.8594 779.16 85.1888 779.16 99.7031C779.16 114.125 776.294 128.362 770.562 142.414C759.007 172.737 737.928 189.655 707.328 193.168ZM728.268 97.9004C728.175 62.6777 715.094 44.6042 689.023 43.6797H679.039V154.617L689.023 154.895C715.279 152.121 728.36 133.123 728.268 97.9004ZM987.307 97.7617C987.307 126.698 977.923 150.133 959.156 168.068C940.389 185.911 916.63 194.832 887.879 194.832C859.128 194.832 835.461 185.911 816.879 168.068C798.297 150.133 789.006 126.698 789.006 97.7617C789.006 68.8255 798.251 45.39 816.74 27.4551C835.23 9.42773 859.035 0.414062 888.156 0.414062C917.37 0.414062 941.175 9.42773 959.572 27.4551C978.062 45.39 987.307 68.8255 987.307 97.7617ZM921.576 62.9551C913.256 53.8027 902.162 49.2266 888.295 49.2266C874.428 49.2266 863.288 53.849 854.875 63.0938C846.462 72.2461 842.256 83.8483 842.256 97.9004C842.256 111.86 846.462 123.37 854.875 132.43C863.288 141.49 874.382 146.02 888.156 146.02C902.023 146.02 913.117 141.443 921.438 132.291C929.85 123.139 934.057 111.583 934.057 97.623C934.057 83.6634 929.896 72.1074 921.576 62.9551ZM1151.49 78.3477C1165.73 78.3477 1172.85 86.7604 1172.85 103.586V154.34C1172.85 165.803 1166.75 175.418 1154.54 183.184C1142.34 190.949 1122.33 194.832 1094.5 194.832C1066.67 194.832 1043.47 185.911 1024.89 168.068C1006.3 150.133 997.014 126.698 997.014 97.7617C997.014 68.8255 1006.26 45.39 1024.75 27.4551C1043.24 9.42773 1065.43 0.414062 1091.31 0.414062C1117.29 0.414062 1137.03 4.48177 1150.52 12.6172C1164.11 20.7526 1171 28.3796 1171.19 35.498C1171.37 42.6165 1169.01 48.9954 1164.11 54.6348C1159.31 60.1816 1154.54 62.9551 1149.83 62.9551C1145.21 62.9551 1138.46 60.7363 1129.58 56.2988C1120.8 51.7689 1108.97 49.4115 1094.08 49.2266C1079.2 49.0417 1068.15 53.6178 1060.94 62.9551C1053.82 72.1999 1050.26 83.8483 1050.26 97.9004C1050.26 111.86 1054.47 123.37 1062.88 132.43C1071.3 141.49 1082.76 145.927 1097.27 145.742C1111.79 145.557 1119.04 139.918 1119.04 128.824C1119.04 127.53 1118.86 126.236 1118.49 124.941H1109.89C1093.25 124.941 1084.93 117.176 1084.93 101.645C1084.93 86.1133 1093.25 78.3477 1109.89 78.3477H1151.49Z" fill="white"/>
</svg>
