<svg width="450" height="107" viewBox="0 0 450 107" fill="none" xmlns="http://www.w3.org/2000/svg">
<rect x="0.5" y="0.5" width="449" height="106" rx="53" fill="#FF8500" stroke="#FFB800"/>
<rect x="0.5" y="0.5" width="449" height="106" rx="53" fill="#2D2D2D" stroke="url(#paint0_linear_650_284)"/>
<path d="M88.1793 59.5338C87.015 60.2386 85.6567 60.3667 84.6218 59.79C83.3281 59.0212 82.5519 57.2912 82.5519 54.9204V47.68C82.5519 44.22 81.1936 41.7211 78.865 41.0804C74.9194 39.9271 71.944 44.7326 70.8444 46.5267L63.8587 57.6115V43.9637C63.794 40.8241 62.7591 38.966 60.8186 38.3893C59.525 38.0048 57.5845 38.1971 55.7087 41.0163L40.1202 65.7489C38.0504 61.8404 36.9508 57.4834 36.9508 53.0623C36.9508 38.133 49.0464 26.023 63.8587 26.023C78.671 26.023 90.7666 38.133 90.7666 53.0623V53.1263V53.1904C90.896 56.0738 89.9904 58.3804 88.1793 59.5338ZM96.7174 53.0623V52.9982V52.9341C96.6527 34.8011 81.9051 20 63.8587 20C45.7476 20 31 34.8011 31 53.0623C31 71.2593 45.7476 86.1245 63.8587 86.1245C72.2027 86.1245 80.094 82.9849 86.1742 77.2823C87.4031 76.1289 87.4678 74.2708 86.3035 73.0534C85.2039 71.836 83.3281 71.7719 82.0992 72.8612C82.0992 72.8612 82.0992 72.8612 82.0345 72.9252C77.1186 77.5386 70.521 80.1656 63.7293 80.1656C55.7734 80.1656 48.6583 76.7056 43.7424 71.1952L57.7785 48.8974V59.2134C57.7785 64.1471 59.719 65.7489 61.3361 66.1975C62.9531 66.646 65.4111 66.3256 68.0631 62.1608L75.7603 49.7945C76.019 49.41 76.2131 49.0256 76.4718 48.7693V55.0486C76.4718 59.6619 78.3476 63.3782 81.5817 65.1723C84.4924 66.8382 88.1793 66.646 91.2194 64.7878C94.971 62.353 96.9761 58.1241 96.7174 53.0623ZM142.513 40.0677C143.289 40.5162 144 41.6055 144 42.5666C144 44.1044 142.707 45.3859 141.219 45.3859C140.831 45.3859 140.507 45.2577 140.184 45.1936C138.438 43.9121 136.238 43.0792 133.91 43.0792C128.412 43.0792 124.66 47.5003 124.66 53.0107C124.66 58.5211 128.477 62.8781 133.91 62.8781C136.626 62.8781 139.084 61.7888 140.896 60.0588C141.348 59.7385 141.93 59.5462 142.513 59.5462C144 59.5462 145.165 60.6996 145.165 62.1733C145.165 63.1344 144.582 63.9673 143.871 64.4159C141.219 66.6585 137.661 68.1322 133.975 68.1322C125.566 68.1322 118.709 61.2762 118.709 52.8184C118.709 44.3607 125.566 37.5047 133.975 37.5047C137.079 37.4406 140.055 38.4018 142.513 40.0677ZM157.907 46.4751C163.664 46.4751 168.45 51.2807 168.45 57.2396C168.45 63.1344 163.599 68.1962 157.907 68.1962C151.892 68.1962 146.911 63.1985 146.911 57.2396C146.911 51.2807 151.892 46.4751 157.907 46.4751ZM157.842 62.8781C160.365 62.8781 162.499 60.5073 162.499 57.3036C162.499 54.0999 160.365 52.0496 157.842 52.0496C155.126 52.0496 152.862 54.0358 152.862 57.3036C152.862 60.4433 155.126 62.8781 157.842 62.8781ZM172.072 64.8644V49.7429C172.072 48.077 173.366 46.7314 175.048 46.7314C176.665 46.7314 178.023 48.077 178.023 49.7429V64.8644C178.023 66.5303 176.665 67.8759 175.048 67.8759C173.431 67.8759 172.072 66.4662 172.072 64.8644ZM171.62 41.0288C171.62 39.0425 173.172 37.5047 175.048 37.5047C176.988 37.5047 178.541 39.1066 178.541 41.0288C178.541 42.951 176.988 44.4888 175.048 44.4888C173.107 44.4247 171.62 42.8869 171.62 41.0288ZM189.407 56.6629V64.8644C189.407 66.5303 188.049 67.8759 186.432 67.8759C184.815 67.8759 183.457 66.5303 183.457 64.8644V49.0381C183.457 47.7566 184.492 46.7314 185.785 46.7314C187.079 46.7314 188.049 47.8207 188.049 49.0381C190.442 46.7955 192.577 46.4751 194.582 46.4751C200.533 46.4751 203.185 50.8962 203.185 55.9581V64.8644C203.185 66.5303 201.826 67.8759 200.209 67.8759C198.592 67.8759 197.234 66.5303 197.234 64.8644V56.6629C197.234 54.0999 196.911 51.9214 193.159 51.9214C190.507 51.9214 189.407 54.0999 189.407 56.6629ZM222.46 59.8025C221.749 59.8025 221.296 59.4822 220.908 59.0336L213.987 51.601V64.8644C213.987 66.5303 212.628 67.8759 211.011 67.8759C209.394 67.8759 208.036 66.5303 208.036 64.8644V38.594C208.23 38.1455 208.683 37.8251 209.136 37.8251C209.653 37.8251 210.106 38.2736 210.429 38.594L221.49 50.8962C221.813 51.2807 222.201 51.4729 222.46 51.4729C222.654 51.4729 223.107 51.2807 223.43 50.8962L234.491 38.594C234.814 38.2736 235.203 37.8251 235.785 37.8251C236.302 37.8251 236.755 38.1455 236.884 38.594V64.8644C236.884 66.5303 235.591 67.8759 233.909 67.8759C232.292 67.8759 230.934 66.5303 230.934 64.8644V51.601L224.013 59.0336C223.495 59.4822 223.042 59.8025 222.46 59.8025ZM251.05 62.8781C253.702 62.8781 255.966 60.5073 255.966 57.3036C255.966 54.0999 253.637 51.9855 251.05 51.9855C248.462 51.9855 246.328 54.164 246.328 57.3036C246.328 60.3792 248.398 62.8781 251.05 62.8781ZM257.389 65.5692L257.259 64.8644C256.095 67.107 252.408 68.1322 250.08 68.1322C244.517 68.1322 240.377 63.1344 240.377 57.1755C240.377 51.2807 244.582 46.411 250.403 46.411C251.373 46.411 254.737 46.6673 257.324 49.6788L257.453 48.974C257.453 47.6925 258.424 46.6673 259.717 46.6673C261.011 46.6673 262.046 47.7566 262.046 48.974V65.5051C262.046 66.7866 261.011 67.8118 259.717 67.8118C258.359 67.8759 257.389 66.7866 257.389 65.5692ZM278.41 51.9214H277.764C274.012 52.1136 273.301 54.2281 273.301 56.6629V64.8644C273.301 66.5303 271.942 67.8759 270.325 67.8759C268.708 67.8759 267.35 66.5303 267.35 64.8644V49.0381C267.35 47.7566 268.385 46.7314 269.678 46.7314C270.972 46.7314 271.942 47.8207 271.942 49.0381C274.141 46.9877 275.953 46.5392 277.764 46.4751H278.346C279.769 46.4751 281.062 47.6925 281.062 49.2303C281.127 50.6399 279.834 51.9214 278.41 51.9214ZM301.373 63.4547C301.631 63.9033 301.826 64.3518 301.826 64.8644C301.826 66.4022 300.403 67.8118 298.85 67.8118C297.815 67.8118 296.91 67.0429 296.198 66.1459L289.342 58.2647V64.8003C289.342 66.4662 287.983 67.8118 286.366 67.8118C284.749 67.8118 283.391 66.4662 283.391 64.8003V40.7725C283.391 39.1066 284.685 37.761 286.366 37.761C288.048 37.761 289.342 39.1066 289.342 40.7725V55.7659L296.198 48.2692C296.91 47.5003 297.751 46.6673 298.785 46.6673C300.273 46.6673 301.632 48.0129 301.632 49.5507C301.632 49.9992 301.502 50.5118 301.243 50.8962L295.81 56.791L301.373 63.4547ZM313.016 51.9855C311.399 51.9855 308.747 52.8185 308.747 55.3173H317.349C317.285 52.8185 314.568 51.9855 313.016 51.9855ZM320.778 59.0977H308.747C308.747 62.6218 312.175 63.1985 313.662 63.1985C314.762 63.1985 316.314 63.0062 317.543 62.4296C317.931 62.1733 318.514 61.9811 319.096 61.9811C320.389 61.9811 321.489 63.0703 321.489 64.4159C321.489 65.3129 320.907 66.0818 320.195 66.5303C318.384 67.8759 315.991 68.1962 313.727 68.1962C307.712 68.1962 302.731 64.9925 302.731 57.4959C302.731 51.601 305.771 46.4751 312.886 46.4751C318.643 46.4751 322.977 50.1914 323.106 56.791C323.106 58.0085 322.071 59.0977 320.778 59.0977ZM337.336 68.1322H335.719C331.191 68.1322 328.539 66.1459 328.539 59.1618V51.9214H326.987C325.564 51.9214 324.335 50.6399 324.335 49.2303C324.335 47.6925 325.629 46.4751 326.987 46.4751H328.539V40.9007C328.539 39.2347 329.833 37.8892 331.515 37.8892C333.132 37.8892 334.49 39.2347 334.49 40.9007V46.4751H336.948C338.371 46.4751 339.6 47.6925 339.6 49.2303C339.6 50.6399 338.306 51.9214 336.948 51.9214H334.49V58.0084C334.49 62.0451 334.684 62.8781 336.495 62.8781H337.336C338.759 62.8781 339.988 64.0314 339.988 65.5051C339.988 66.9148 338.759 68.1322 337.336 68.1322ZM366.12 40.0677C366.896 40.5162 367.608 41.6055 367.608 42.5666C367.608 44.1044 366.314 45.3859 364.826 45.3859C364.438 45.3859 364.115 45.2577 363.791 45.1936C362.045 43.9121 359.846 43.0792 357.517 43.0792C352.019 43.0792 348.268 47.5003 348.268 53.0107C348.268 58.5211 352.084 62.8781 357.517 62.8781C360.234 62.8781 362.692 61.7888 364.503 60.0588C364.956 59.7385 365.538 59.5462 366.12 59.5462C367.608 59.5462 368.772 60.6996 368.772 62.1733C368.772 63.1344 368.19 63.9673 367.478 64.4159C364.826 66.6585 361.269 68.1322 357.582 68.1322C349.173 68.1322 342.317 61.2762 342.317 52.8184C342.317 44.3607 349.173 37.5047 357.582 37.5047C360.687 37.4406 363.727 38.4018 366.12 40.0677ZM381.191 62.8781C383.843 62.8781 386.107 60.5073 386.107 57.3036C386.107 54.0999 383.778 51.9855 381.191 51.9855C378.539 51.9855 376.469 54.164 376.469 57.3036C376.469 60.3792 378.604 62.8781 381.191 62.8781ZM387.53 65.5692L387.4 64.8644C386.236 67.107 382.549 68.1322 380.221 68.1322C374.658 68.1322 370.518 63.1344 370.518 57.1755C370.518 51.2807 374.723 46.411 380.544 46.411C381.514 46.411 384.878 46.6673 387.465 49.6788L387.595 48.974C387.595 47.6925 388.565 46.6673 389.858 46.6673C391.152 46.6673 392.187 47.7566 392.187 48.974V65.5051C392.187 66.7866 391.152 67.8118 389.858 67.8118C388.5 67.8759 387.53 66.7866 387.53 65.5692ZM408.422 62.8781C411.074 62.8781 413.144 60.3792 413.144 57.3036C413.144 54.0999 411.01 51.9855 408.422 51.9855C405.77 51.9855 403.506 54.0999 403.506 57.3036C403.506 60.5073 405.77 62.8781 408.422 62.8781ZM403.506 66.4022V73.8988C403.506 75.5648 402.148 76.9103 400.531 76.9103C398.914 76.9103 397.556 75.5648 397.556 73.8988V49.0381C397.556 47.7566 398.591 46.7314 399.884 46.7314C401.178 46.7314 402.148 47.8207 402.148 49.2944C404.347 47.0518 407.064 46.4751 409.134 46.4751C414.891 46.4751 419.16 51.2807 419.16 57.2396C419.16 63.1344 415.085 68.1962 409.457 68.1962C407.711 68.1322 405.123 67.6196 403.506 66.4022Z" fill="#747474"/>
<defs>
<linearGradient id="paint0_linear_650_284" x1="0" y1="53.5" x2="450" y2="53.5" gradientUnits="userSpaceOnUse">
<stop stop-color="white"/>
<stop offset="1" stop-color="#999999"/>
</linearGradient>
</defs>
</svg>
