<svg width="450" height="107" viewBox="0 0 450 107" fill="none" xmlns="http://www.w3.org/2000/svg">
<rect x="0.5" y="0.5" width="449" height="106" rx="53" fill="#2D2D2D" stroke="url(#paint0_linear_651_344)"/>
<mask id="mask0_651_344" style="mask-type:luminance" maskUnits="userSpaceOnUse" x="84" y="15" width="79" height="77">
<path d="M162.154 15.3055H84.0776V91.6945H162.154V15.3055Z" fill="#747474"/>
</mask>
<g mask="url(#mask0_651_344)">
<g filter="url(#filter0_d_651_344)">
<path d="M91.5525 75.382C94.8219 79.8711 99.0157 83.6271 103.859 86.4041C108.702 89.1807 114.085 90.9158 119.655 91.4952C116.789 87.2384 112.624 83.3222 107.424 80.3407C102.223 77.3591 96.7161 75.7304 91.5525 75.382Z" fill="#747474"/>
<path d="M114.411 68.4686C104.392 62.723 93.5485 61.2587 85.7893 63.8454C86.5384 66.2892 87.5262 68.6553 88.739 70.9103C95.4804 70.7562 102.841 72.5636 109.69 76.4901C116.539 80.4169 121.777 85.8361 124.983 91.6944C127.569 91.6162 130.142 91.2907 132.666 90.7233C131.097 82.7898 124.428 74.2154 114.411 68.4686Z" fill="#747474"/>
<path d="M162.154 45.1471C160.881 40.0326 158.576 35.224 155.378 31.0083C152.179 26.7927 148.153 23.2564 143.54 20.6106C138.926 17.9649 133.82 16.264 128.526 15.6094C123.232 14.9549 117.858 15.3602 112.726 16.801C121.3 17.8367 130.816 21.0137 140.149 26.3658C149.482 31.7178 156.999 38.3037 162.154 45.1471Z" fill="#747474"/>
<path d="M149.681 63.904C145.292 56.7097 137.775 49.821 128.514 44.5104C119.253 39.1998 109.469 36.1664 100.971 35.9657C93.4951 35.791 87.8843 37.9362 85.5812 41.85C85.5681 41.8731 85.5497 41.8952 85.5353 41.9184C85.3281 42.6526 85.1497 43.3878 84.9871 44.1259C88.203 42.8726 91.9291 42.1749 96.0723 42.097C105.286 41.9264 115.597 44.8353 125.113 50.2922C134.628 55.7492 142.302 63.1532 146.714 71.1358C148.692 74.7324 149.926 78.2731 150.415 81.656C150.984 81.1538 151.543 80.6346 152.085 80.0949C152.099 80.0703 152.109 80.0441 152.123 80.0183C154.426 76.101 153.535 70.2282 149.681 63.904Z" fill="#747474"/>
<path d="M121.467 56.4804C107.286 48.3477 91.6138 47.0735 84.0776 52.7492C84.0924 54.5258 84.23 56.2992 84.4895 58.0574C86.7063 57.394 88.9912 56.9762 91.3017 56.8119C99.7232 56.1865 109.008 58.5028 117.433 63.3367C125.858 68.1709 132.5 74.9887 136.123 82.5142C137.124 84.576 137.888 86.7421 138.399 88.972C140.076 88.3233 141.705 87.5632 143.277 86.6973C144.539 77.4225 135.653 64.6146 121.467 56.4804Z" fill="#747474"/>
<path d="M156.975 51.8627C152.537 44.6761 144.953 37.768 135.626 32.4224C126.3 27.0768 116.478 23.9956 107.953 23.7483C101.454 23.5632 96.4203 25.118 93.8103 28.0556C104.648 26.2431 118.942 29.2893 132.798 37.2346C146.653 45.1799 156.419 55.9304 160.188 66.1205C161.48 62.4294 160.356 57.3429 156.975 51.8627Z" fill="#747474"/>
</g>
</g>
<path d="M191.429 73.4027C188.357 73.4027 185.821 72.615 183.82 71.0401C181.838 69.4649 180.427 67.335 179.587 64.6502L186.767 62.932C186.928 63.9164 187.446 64.7755 188.321 65.5093C189.197 66.2254 190.125 66.5832 191.108 66.5832C191.787 66.5832 192.51 66.3953 193.278 66.0195C194.064 65.6436 194.627 65.0441 194.966 64.2208C195.18 63.7016 195.305 63.0663 195.341 62.3144C195.377 61.5628 195.395 60.6946 195.395 59.7102V33.9363H202.789V59.7102C202.789 60.9452 202.78 62.0192 202.763 62.932C202.763 63.8447 202.673 64.7039 202.495 65.5093C202.334 66.2968 202.003 67.1203 201.503 67.9794C200.414 69.8766 198.994 71.2548 197.243 72.1139C195.493 72.973 193.555 73.4027 191.429 73.4027Z" fill="#747474"/>
<path d="M221.582 73.4563C219.313 73.4563 217.465 73.0715 216.036 72.3018C214.607 71.5322 213.49 70.5568 212.686 69.3755C211.901 68.1941 211.338 66.968 210.998 65.6973C210.659 64.4087 210.454 63.2362 210.382 62.1803C210.311 61.1243 210.275 60.3546 210.275 59.8713V43.6015H217.67V57.294C217.67 57.9562 217.706 58.8063 217.777 59.8445C217.849 60.8647 218.072 61.8938 218.447 62.932C218.822 63.97 219.429 64.8381 220.269 65.5362C221.126 66.2342 222.332 66.5832 223.886 66.5832C224.511 66.5832 225.181 66.4849 225.895 66.288C226.61 66.0911 227.279 65.7152 227.905 65.1603C228.53 64.5876 229.039 63.7553 229.432 62.6634C229.843 61.5537 230.048 60.1041 230.048 58.3142L234.228 60.3008C234.228 62.592 233.763 64.7397 232.834 66.7443C231.906 68.7489 230.504 70.3689 228.628 71.6038C226.77 72.8388 224.422 73.4563 221.582 73.4563ZM230.959 72.5972V62.9856H230.048V43.6015H237.389V72.5972H230.959Z" fill="#747474"/>
<path d="M259.078 73.4027C256.202 73.4027 253.8 72.7315 251.871 71.3891C249.942 70.0467 248.486 68.221 247.503 65.912C246.539 63.6032 246.057 60.999 246.057 58.0993C246.057 55.1997 246.539 52.5955 247.503 50.2867C248.468 47.9777 249.888 46.152 251.764 44.8096C253.639 43.4672 255.953 42.796 258.703 42.796C261.471 42.796 263.882 43.4584 265.938 44.7828C267.992 46.1074 269.581 47.9241 270.706 50.2329C271.848 52.5239 272.42 55.1461 272.42 58.0993C272.42 60.999 271.859 63.6032 270.733 65.912C269.625 68.221 268.071 70.0467 266.07 71.3891C264.07 72.7315 261.74 73.4027 259.078 73.4027ZM244.824 85.4842V43.6015H251.254V63.4689H252.165V85.4842H244.824ZM257.9 66.9054C259.472 66.9054 260.757 66.5117 261.757 65.7241C262.758 64.9366 263.498 63.8805 263.98 62.5561C264.462 61.2137 264.705 59.728 264.705 58.0993C264.705 56.4885 264.454 55.0208 263.955 53.6964C263.454 52.354 262.677 51.2889 261.622 50.5015C260.587 49.696 259.256 49.2933 257.632 49.2933C256.112 49.2933 254.88 49.6602 253.934 50.394C253.005 51.1278 252.326 52.1571 251.897 53.4815C251.469 54.8061 251.254 56.3454 251.254 58.0993C251.254 59.8533 251.469 61.3926 251.897 62.7172C252.326 64.0416 253.023 65.0709 253.987 65.8047C254.97 66.5385 256.274 66.9054 257.9 66.9054Z" fill="#747474"/>
<path d="M278.853 39.5745V33.131H286.14V39.5745H278.853ZM278.853 72.5972V43.6015H286.14V72.5972H278.853Z" fill="#747474"/>
<path d="M311.533 72.5972C309.534 72.9731 307.568 73.1342 305.639 73.0805C303.728 73.0447 302.014 72.7135 300.496 72.0871C298.995 71.4427 297.851 70.4135 297.065 68.9996C296.351 67.6751 295.975 66.3327 295.94 64.9724C295.904 63.5942 295.887 62.0371 295.887 60.3008V35.5472H303.175V59.8713C303.175 60.999 303.183 62.0192 303.202 62.932C303.237 63.8269 303.424 64.5428 303.764 65.0799C304.407 66.1001 305.434 66.6548 306.845 66.7443C308.255 66.8339 309.819 66.7623 311.533 66.5296V72.5972ZM290.958 49.2395V43.6015H311.533V49.2395H290.958Z" fill="#747474"/>
<path d="M329.861 73.4027C326.897 73.4027 324.28 72.7671 322.012 71.4964C319.761 70.2078 317.992 68.4447 316.707 66.2074C315.439 63.9522 314.804 61.3748 314.804 58.4753C314.804 55.3072 315.429 52.5509 316.68 50.2061C317.929 47.8615 319.654 46.0448 321.851 44.756C324.047 43.4494 326.575 42.796 329.434 42.796C332.47 42.796 335.051 43.512 337.176 44.9439C339.301 46.3758 340.873 48.3894 341.892 50.9847C342.91 53.5799 343.267 56.6318 342.963 60.1399H335.757V57.4551C335.757 54.5017 335.283 52.3808 334.336 51.092C333.407 49.7854 331.88 49.1322 329.754 49.1322C327.273 49.1322 325.441 49.8929 324.263 51.4142C323.102 52.9177 322.521 55.1461 322.521 58.0993C322.521 60.8021 323.102 62.8961 324.263 64.3817C325.441 65.8493 327.164 66.5832 329.434 66.5832C330.863 66.5832 332.085 66.27 333.104 65.6436C334.122 65.0172 334.9 64.1133 335.434 62.932L342.722 65.026C341.632 67.675 339.909 69.7335 337.551 71.2012C335.212 72.6688 332.649 73.4027 329.861 73.4027ZM320.27 60.1399V54.7166H339.454V60.1399H320.27Z" fill="#747474"/>
<path d="M349.013 72.5973V43.6015H355.443V50.6894L354.747 49.7767C355.122 48.7743 355.621 47.8615 356.248 47.038C356.872 46.2147 357.64 45.5347 358.551 44.9976C359.247 44.5681 360.008 44.2369 360.829 44.0044C361.651 43.7536 362.498 43.6015 363.374 43.5479C364.25 43.4763 365.124 43.4943 366 43.6015V50.4209C365.195 50.1703 364.258 50.0899 363.187 50.1793C362.133 50.2509 361.177 50.4925 360.32 50.9042C359.463 51.298 358.738 51.8259 358.149 52.4881C357.56 53.1325 357.113 53.9022 356.809 54.7971C356.506 55.6742 356.355 56.6674 356.355 57.7773V72.5973H349.013Z" fill="#747474"/>
<defs>
<filter id="filter0_d_651_344" x="67.0554" y="-0.0144277" width="112.121" height="110.433" filterUnits="userSpaceOnUse" color-interpolation-filters="sRGB">
<feFlood flood-opacity="0" result="BackgroundImageFix"/>
<feColorMatrix in="SourceAlpha" type="matrix" values="0 0 0 0 0 0 0 0 0 0 0 0 0 0 0 0 0 0 127 0" result="hardAlpha"/>
<feOffset dy="1.70223"/>
<feGaussianBlur stdDeviation="8.5111"/>
<feComposite in2="hardAlpha" operator="out"/>
<feColorMatrix type="matrix" values="0 0 0 0 0 0 0 0 0 0 0 0 0 0 0 0 0 0 0.1 0"/>
<feBlend mode="normal" in2="BackgroundImageFix" result="effect1_dropShadow_651_344"/>
<feBlend mode="normal" in="SourceGraphic" in2="effect1_dropShadow_651_344" result="shape"/>
</filter>
<linearGradient id="paint0_linear_651_344" x1="0" y1="53.5" x2="450" y2="53.5" gradientUnits="userSpaceOnUse">
<stop stop-color="white"/>
<stop offset="1" stop-color="#999999"/>
</linearGradient>
</defs>
</svg>
