<svg width="450" height="107" viewBox="0 0 450 107" fill="none" xmlns="http://www.w3.org/2000/svg">
<rect x="0.5" y="0.5" width="449" height="106" rx="53" fill="#FF8500" stroke="#FFB800"/>
<path fill-rule="evenodd" clip-rule="evenodd" d="M83.3203 44.1985C85.3943 43.1623 88.0343 41.6371 90.6772 39.5472C91.2342 40.7064 91.2953 41.7178 91.0084 42.5346C90.805 43.1102 90.4213 43.6109 89.9175 44.0092C89.3714 44.4397 88.6894 44.753 87.9359 44.9225C86.506 45.2451 84.8364 45.0566 83.3203 44.1985Z" fill="white"/>
<path fill-rule="evenodd" clip-rule="evenodd" d="M83.6796 54.8155L86.4258 56.4043C80.8186 59.5521 79.2943 65.3973 77.4837 71.091C75.6731 65.3973 74.1486 59.5521 68.5415 56.4043L71.2877 54.8155C71.8183 54.6154 72.184 54.0893 72.1558 53.492C71.9042 48.1599 73.3415 45.8021 75.2802 44.3216C75.9756 43.7914 76.7346 43.525 77.4837 43.525C78.2328 43.525 78.9916 43.7914 79.687 44.3216C81.6259 45.8021 83.0631 48.1599 82.8117 53.492C82.7832 54.0893 83.149 54.6154 83.6796 54.8155Z" fill="white"/>
<path fill-rule="evenodd" clip-rule="evenodd" d="M77.4835 20C80.6577 20.0855 83.8401 20.7025 86.6018 21.9035C88.5143 22.7361 90.299 23.836 91.9144 25.151C92.6444 25.7447 93.2451 26.3184 93.9071 26.9785C95.6926 27.0404 98.3013 25.0537 99.5126 23.195C97.4281 30.0402 87.9161 38.1239 81.3303 41.2171C81.3279 41.216 81.3258 41.2143 81.3238 41.213C80.1421 40.3091 78.8128 39.8571 77.4835 39.8571C76.154 39.8571 74.8251 40.3091 73.6432 41.213C73.6411 41.214 73.6392 41.216 73.6367 41.2171C67.0512 38.1239 57.539 30.0402 55.4546 23.195C56.6656 25.0537 59.2746 27.0404 61.0598 26.9785C61.7219 26.3184 62.3227 25.7447 63.0524 25.151C64.6682 23.836 66.4528 22.7361 68.3652 21.9035C71.1271 20.7025 74.3093 20.0855 77.4835 20Z" fill="white"/>
<path fill-rule="evenodd" clip-rule="evenodd" d="M71.647 44.1985C69.5728 43.1623 66.9329 41.6371 64.2901 39.5472C63.7328 40.7064 63.6718 41.7178 63.9588 42.5346C64.1625 43.1102 64.5458 43.6109 65.0497 44.0092C65.5958 44.4397 66.2776 44.753 67.0314 44.9225C68.4614 45.2451 70.1309 45.0566 71.647 44.1985Z" fill="white"/>
<path fill-rule="evenodd" clip-rule="evenodd" d="M93.5715 36.9866C95.0266 35.5158 96.3084 33.8881 97.3395 32.4354L97.8628 33.4225C99.5486 36.8002 100.424 40.1644 100.424 43.9507C100.424 45.9527 100.415 47.9563 100.421 49.9584C100.423 51.2137 100.432 51.8168 100.452 53.0728C100.574 60.7185 102.226 68.4546 105.967 75.534L98.1395 69.2115L92.6006 78.2143L86.7819 72.7277L77.4836 87.842L68.1852 72.7277L62.3666 78.2143L56.8279 69.2115L49 75.534C52.7414 68.4546 54.393 60.7185 54.5151 53.0728C54.5349 51.8168 54.5436 51.2137 54.5468 49.9584C54.552 47.9563 54.5431 45.9527 54.5431 43.9507C54.5431 40.1644 55.4187 36.8002 57.1045 33.4225L57.6279 32.4354C58.6587 33.8881 59.9406 35.5158 61.3957 36.9866L60.9414 37.9319C60.0587 39.7682 59.7663 41.8212 60.454 43.7736C60.8972 45.0313 61.7063 46.1098 62.7493 46.9332C63.7619 47.7328 64.9606 48.2717 66.2155 48.5548C67.033 48.739 67.8658 48.815 68.6931 48.7892C68.5 49.8853 68.4157 51.0222 68.4102 52.1807L61.0262 56.4527L66.7242 59.6519C67.1894 59.9131 67.6201 60.207 68.0205 60.5282C72.7183 64.7533 75.5426 77.252 77.4836 83.3569C79.4246 77.252 82.2489 64.7533 86.9467 60.5282C87.3475 60.207 87.7776 59.9131 88.2431 59.6519L93.941 56.4527L86.5568 52.1807C86.5516 51.0222 86.4673 49.8853 86.274 48.7892C87.1017 48.815 87.9342 48.739 88.7517 48.5548C90.0066 48.2717 91.2054 47.7328 92.2177 46.9332C93.2611 46.1098 94.07 45.0313 94.5131 43.7736C95.2008 41.8212 94.9086 39.7682 94.026 37.9319L93.5715 36.9866Z" fill="white"/>
<path d="M138.211 67.6072C146.57 67.6072 151.632 62.4277 151.632 53.8403C151.632 45.2796 146.57 40.1271 138.292 40.1271H128.486V67.6072H138.211ZM134.286 62.6292V45.1052H137.983C143.127 45.1052 145.846 47.7351 145.846 53.8403C145.846 59.9723 143.127 62.6292 137.97 62.6292H134.286ZM155.929 67.6072H174.467V62.817H161.729V56.2556H173.463V51.4653H161.729V44.9173H174.414V40.1271H155.929V67.6072ZM184.463 40.1271H177.886L186.312 53.8671L177.726 67.6072H184.369L189.995 58.228H190.209L195.835 67.6072H202.506L193.947 53.8671L202.319 40.1271H195.769L190.209 49.4929H189.995L184.463 40.1271Z" fill="white"/>
<path d="M225.256 46.997H228.47C228.323 42.8508 224.505 39.7513 219.201 39.7513C213.95 39.7513 209.825 42.8106 209.825 47.4264C209.825 51.1298 212.504 53.3303 216.79 54.5648L220.166 55.5309C223.059 56.336 225.631 57.3557 225.631 60.0932C225.631 63.0987 222.737 65.0844 218.933 65.0844C215.665 65.0844 212.772 63.6355 212.504 60.5224H209.074C209.396 65.0308 213.04 68.0904 218.933 68.0904C225.256 68.0904 228.845 64.6016 228.845 60.1468C228.845 54.9941 223.97 53.3303 221.13 52.5789L218.344 51.8275C216.308 51.2908 213.04 50.2173 213.04 47.2654C213.04 44.6354 215.45 42.7032 219.094 42.7032C222.416 42.7032 224.934 44.2866 225.256 46.997ZM256.382 48.7145C255.364 43.0789 250.863 39.7513 245.344 39.7513C238.326 39.7513 233.236 45.1721 233.236 53.867C233.236 62.5618 238.326 67.9827 245.344 67.9827C250.863 67.9827 255.364 64.6552 256.382 59.0194H253.06C252.256 62.8302 248.988 64.8696 245.344 64.8696C240.362 64.8696 236.45 61.0052 236.45 53.867C236.45 46.7286 240.362 42.8643 245.344 42.8643C248.988 42.8643 252.256 44.9038 253.06 48.7145H256.382ZM261.75 67.6071H265.072V56.8727H271.073C271.314 56.8727 271.542 56.8727 271.769 56.8593L277.556 67.6071H281.414L275.212 56.2555C278.708 55.0612 280.342 52.2032 280.342 48.5535C280.342 43.6962 277.449 40.127 271.019 40.127H261.75V67.6071ZM265.072 53.867V43.0789H270.912C275.359 43.0789 277.074 45.2527 277.074 48.5535C277.074 51.8543 275.359 53.867 270.966 53.867H265.072ZM285.877 67.6071H302.648V64.6552H289.2V55.3162H301.576V52.3642H289.2V43.0789H302.434V40.127H285.877V67.6071ZM308.421 67.6071H325.192V64.6552H311.743V55.3162H324.12V52.3642H311.743V43.0789H324.977V40.127H308.421V67.6071ZM352.718 40.127H349.45V61.7569H349.182L334.18 40.127H330.965V67.6071H334.287V46.0309H334.555L349.503 67.6071H352.718V40.127ZM359.365 67.6071H376.136V64.6552H362.687V55.3162H375.064V52.3642H362.687V43.0789H375.922V40.127H359.365V67.6071ZM381.909 67.6071H385.231V56.8727H391.232C391.473 56.8727 391.701 56.8727 391.928 56.8593L397.715 67.6071H401.573L395.371 56.2555C398.867 55.0612 400.501 52.2032 400.501 48.5535C400.501 43.6962 397.608 40.127 391.178 40.127H381.909V67.6071ZM385.231 53.867V43.0789H391.071C395.518 43.0789 397.233 45.2527 397.233 48.5535C397.233 51.8543 395.518 53.867 391.125 53.867H385.231Z" fill="white"/>
</svg>
