<svg width="37" height="38" viewBox="0 0 37 38" fill="none" xmlns="http://www.w3.org/2000/svg">
<path d="M18.5 0C8.28024 0 0 8.50403 0 19C0 29.496 8.28024 38 18.5 38C28.7198 38 37 29.496 37 19C37 8.50403 28.7198 0 18.5 0ZM27.0786 12.9246C26.8026 15.9278 25.5942 23.2214 24.9825 26.5847C24.7214 28.0097 24.2141 28.4847 23.7218 28.5306C22.6476 28.6302 21.8345 27.8028 20.7901 27.098C19.1639 26.0024 18.2389 25.3206 16.6649 24.248C14.8373 23.0145 16.0234 22.3327 17.0603 21.2218C17.3363 20.9306 22.0657 16.5101 22.1552 16.1117C22.1702 16.0581 22.1776 15.8742 22.0657 15.7746C21.9538 15.675 21.7972 15.7133 21.6853 15.7363C21.5212 15.772 18.9202 17.5367 13.8825 21.0302C13.1464 21.5512 12.4776 21.804 11.8758 21.7887C11.2119 21.7734 9.94375 21.4056 8.99637 21.0915C7.84012 20.7085 6.91512 20.5016 6.99718 19.8427C7.03696 19.5005 7.49698 19.1507 8.37722 18.7931C13.7681 16.3824 17.3636 14.7914 19.1639 14.0202C24.3036 11.829 25.3704 11.446 26.0641 11.4306C26.2208 11.4306 26.5565 11.469 26.7802 11.6528C26.9263 11.7847 27.0194 11.9677 27.0413 12.1661C27.0817 12.4167 27.0942 12.6711 27.0786 12.9246Z" fill="#FACC15"/>
</svg>
