<svg width="34" height="35" viewBox="0 0 34 35" fill="none" xmlns="http://www.w3.org/2000/svg">
<path d="M4.85714 0C2.17813 0 0 2.24219 0 5V30C0 32.7578 2.17813 35 4.85714 35H29.1429C31.8219 35 34 32.7578 34 30V5C34 2.24219 31.8219 0 29.1429 0H4.85714ZM27.4049 6.5625L19.5272 15.8281L28.7938 28.4375H21.5384L15.8616 20.7891L9.35759 28.4375H5.75268L14.1768 18.5234L5.28973 6.5625H12.7272L17.8652 13.5547L23.8 6.5625H27.4049ZM24.5362 26.2188L11.642 8.66406H9.4942L22.5326 26.2188H24.5286H24.5362Z" fill="white"/>
</svg>
